# xmcd
#
# Track frame offsets: 
#        150
#        18543
#        33912
#        54351
#        73975
#        90465
#        106443
#        131463
#        147413
#        168793
#        186831
#        204642
#        224432
#        241101
#        258672
#
# Disc length: 3790 seconds
#
# Revision: 0
# Processed by: cddbd v1.5.2PL0 Copyright (c) Steve Scherf et al.
# Submitted via: ExactAudioCopyFreeDBPlugin 1.0
#
DISCID=d90ecc0f
DTITLE=Mister Rags - Yakavegas Highroller
DYEAR=2009
DGENRE=Hip-Hop
TTITLE0=I'm A Hustla (ft. Lucky Luciano, Al
TTITLE1=Switching Lanes (ft. Train, Flox, Russle Lee)
TTITLE2=Back Stroking (ft. Sim, BD)
TTITLE3=Cuff Ya Wifey (ft. BD, Kloony)
TTITLE4=Mines Right Now(ft. Kloony, BD, Mak One)
TTITLE5=What The Business Is(ft. Trae, Lucky)
TTITLE6=No Grind No Shine(ft. Jacka, Sleep Six, Lucky, Russle Lee)
TTITLE7=White On White (ft. Messy Marv, Duma)
TTITLE8=I'm The M.A.N. (ft. Popsykle, Train, Young Tic)
TTITLE9=Yak-A-Vegas (ft. Young T, Harm)
TTITLE10=Want My Love (ft. Jazzy Pha, Kloony, Young T, Boxer, Sleep Si
TTITLE10=x)
TTITLE11=Lay Back (ft. Sleep Six, Prince, Buggzy)
TTITLE12=Hustlin' Is All We Know (ft. Young Tex, Kloony, Flox)
TTITLE13=I Got Diamonds (ft. Kloony, Flox)
TTITLE14=Adrenaline (ft. Low G, SPM, Kloony, Young T, Raspy)
EXTD=
EXTT0=
EXTT1=
EXTT2=
EXTT3=
EXTT4=
EXTT5=
EXTT6=
EXTT7=
EXTT8=
EXTT9=
EXTT10=
EXTT11=
EXTT12=
EXTT13=
EXTT14=
PLAYORDER=
